# This file uses meters as units for non-parametric coordinates.

g default
v 7.071067 0.000000 -7.071067
v 0.000000 0.000000 -9.999999
v -7.071067 0.000000 -7.071067
v -9.999999 0.000000 0.000000
v -7.071067 0.000000 7.071067
v 0.000000 0.000000 9.999999
v 7.071068 0.000000 7.071068
v 10.000000 0.000000 0.000000
v 7.071067 395.489838 -7.071067
v 0.000000 395.489838 -9.999999
v -7.071067 395.489838 -7.071067
v -9.999999 395.489838 0.000000
v -7.071067 395.489838 7.071067
v 0.000000 395.489838 9.999999
v 7.071068 395.489838 7.071068
v 10.000000 395.489838 0.000000
v 0.000000 0.000000 0.000000
v 10.394434 394.235748 -10.394434
v -0.000000 394.235748 -14.699950
v -10.394434 394.235748 -10.394434
v -14.699950 394.235748 0.000000
v -10.394434 394.235748 10.394434
v -0.000000 394.235748 14.699950
v 10.394434 394.235748 10.394435
v 14.699950 394.235748 0.000000
v 10.394434 404.189240 -10.394434
v -0.000000 404.189240 -14.699950
v -10.394434 404.189240 -10.394434
v -14.699950 404.189240 0.000000
v -10.394434 404.189240 10.394434
v -0.000000 404.189240 14.699950
v 10.394434 404.189240 10.394435
v 14.699950 404.189240 0.000000
v 8.980483 409.728271 -8.980483
v -0.000000 409.728271 -12.700320
v -8.980483 409.728271 -8.980483
v -12.700320 409.728271 0.000000
v -8.980483 409.728271 8.980483
v -0.000000 409.728271 12.700320
v 8.980483 409.728271 8.980483
v 12.700320 409.728271 0.000000
v 4.416835 414.223511 -4.416835
v -0.000000 414.223511 -6.246348
v -4.416835 414.223511 -4.416835
v -6.246348 414.223511 0.000000
v -4.416835 414.223511 4.416835
v -0.000000 414.223511 6.246348
v 4.416835 414.223511 4.416835
v 6.246348 414.223511 0.000000
v 3.706099 414.223511 0.000000
v -0.000000 414.223511 3.706099
v 2.620608 414.223511 2.620608
v -3.706099 414.223511 0.000000
v -2.620608 414.223511 2.620608
v -0.000000 414.223511 -3.706099
v 2.620608 414.223511 -2.620608
v -2.620608 414.223511 -2.620608
v 3.706099 418.022400 0.000000
v -0.000000 418.022400 0.000000
v -0.000000 418.022400 3.706099
v 2.620608 418.022400 2.620608
v -3.706099 418.022400 0.000000
v -2.620608 418.022400 2.620608
v -0.000000 418.022400 -3.706099
v 2.620608 418.022400 -2.620608
v -2.620608 418.022400 -2.620608
vt 0.375000 0.312500
vt 0.406250 0.312500
vt 0.406250 0.688440
vt 0.375000 0.688440
vt 0.437500 0.312500
vt 0.437500 0.688440
vt 0.468750 0.312500
vt 0.468750 0.688440
vt 0.500000 0.312500
vt 0.500000 0.688440
vt 0.531250 0.312500
vt 0.531250 0.688440
vt 0.562500 0.312500
vt 0.562500 0.688440
vt 0.593750 0.312500
vt 0.593750 0.688440
vt 0.625000 0.312500
vt 0.625000 0.688440
vt 0.389515 0.045765
vt 0.500000 0.000000
vt 0.500000 0.150000
vt 0.343750 0.156250
vt 0.389515 0.266735
vt 0.500000 0.312500
vt 0.610485 0.266735
vt 0.656250 0.156250
vt 0.610485 0.045765
vt 0.000000 0.000000
vt 1.000000 0.000000
vt 1.000000 1.000000
vt 0.000000 1.000000
vt 0.000000 0.000000
vt 1.000000 0.000000
vt 1.000000 1.000000
vt 0.000000 1.000000
vt 0.000000 0.000000
vt 1.000000 0.000000
vt 1.000000 1.000000
vt 0.000000 1.000000
vt 0.000000 0.000000
vt 1.000000 0.000000
vt 1.000000 1.000000
vt 0.000000 1.000000
vt 0.000000 0.000000
vt 1.000000 0.000000
vt 1.000000 1.000000
vt 0.000000 1.000000
vt 0.000000 0.000000
vt 1.000000 0.000000
vt 1.000000 1.000000
vt 0.000000 1.000000
vt 0.000000 0.000000
vt 1.000000 0.000000
vt 1.000000 1.000000
vt 0.000000 1.000000
vt 0.000000 0.000000
vt 1.000000 0.000000
vt 1.000000 1.000000
vt 0.000000 1.000000
vt 0.000000 0.000000
vt 1.000000 0.000000
vt 1.000000 1.000000
vt 0.000000 1.000000
vt 0.000000 0.000000
vt 1.000000 0.000000
vt 1.000000 1.000000
vt 0.000000 1.000000
vt 0.000000 0.000000
vt 1.000000 0.000000
vt 1.000000 1.000000
vt 0.000000 1.000000
vt 0.000000 0.000000
vt 1.000000 0.000000
vt 1.000000 1.000000
vt 0.000000 1.000000
vt 0.000000 0.000000
vt 1.000000 0.000000
vt 1.000000 1.000000
vt 0.000000 1.000000
vt 0.000000 0.000000
vt 1.000000 0.000000
vt 1.000000 1.000000
vt 0.000000 1.000000
vt 0.000000 0.000000
vt 1.000000 0.000000
vt 1.000000 1.000000
vt 0.000000 1.000000
vt 0.000000 0.000000
vt 1.000000 0.000000
vt 1.000000 1.000000
vt 0.000000 1.000000
vt 0.000000 0.000000
vt 1.000000 0.000000
vt 1.000000 1.000000
vt 0.000000 1.000000
vt 0.000000 0.000000
vt 1.000000 0.000000
vt 1.000000 1.000000
vt 0.000000 1.000000
vt 0.000000 0.000000
vt 1.000000 0.000000
vt 1.000000 1.000000
vt 0.000000 1.000000
vt 0.000000 0.000000
vt 1.000000 0.000000
vt 1.000000 1.000000
vt 0.000000 1.000000
vt 0.000000 0.000000
vt 1.000000 0.000000
vt 1.000000 1.000000
vt 0.000000 1.000000
vt 0.000000 0.000000
vt 1.000000 0.000000
vt 1.000000 1.000000
vt 0.000000 1.000000
vt 0.000000 0.000000
vt 1.000000 0.000000
vt 1.000000 1.000000
vt 0.000000 1.000000
vt 0.000000 0.000000
vt 1.000000 0.000000
vt 1.000000 1.000000
vt 0.000000 1.000000
vt 0.000000 0.000000
vt 1.000000 0.000000
vt 1.000000 1.000000
vt 0.000000 1.000000
vt 0.000000 0.000000
vt 1.000000 0.000000
vt 1.000000 1.000000
vt 0.000000 1.000000
vt 0.000000 0.000000
vt 1.000000 0.000000
vt 1.000000 1.000000
vt 0.000000 1.000000
vt 0.000000 0.000000
vt 1.000000 0.000000
vt 1.000000 1.000000
vt 0.000000 1.000000
vt 0.000000 0.000000
vt 1.000000 0.000000
vt 1.000000 1.000000
vt 0.000000 1.000000
vt 0.000000 0.000000
vt 1.000000 0.000000
vt 1.000000 1.000000
vt 0.000000 1.000000
vt 0.000000 0.000000
vt 1.000000 0.000000
vt 1.000000 1.000000
vt 0.000000 1.000000
vt 0.000000 0.000000
vt 1.000000 0.000000
vt 1.000000 1.000000
vt 0.000000 1.000000
vt 0.000000 1.000000
vt 0.000000 1.000000
vt 0.000000 1.000000
vt 0.000000 1.000000
vt 0.000000 1.000000
vt 0.000000 1.000000
vt 0.000000 1.000000
vt 0.000000 1.000000
vt 0.000000 1.000000
vt 0.000000 1.000000
vt 0.000000 1.000000
vt 0.000000 1.000000
vt 0.000000 1.000000
vt 0.000000 1.000000
vt 0.000000 1.000000
vt 0.000000 1.000000
vt 0.000000 1.000000
vn 0.382683 0.000000 -0.923880
vn 0.382683 0.000000 -0.923880
vn 0.382683 0.000000 -0.923880
vn 0.382683 0.000000 -0.923880
vn -0.382683 0.000000 -0.923880
vn -0.382683 0.000000 -0.923880
vn -0.382683 0.000000 -0.923880
vn -0.382683 0.000000 -0.923880
vn -0.923880 0.000000 -0.382683
vn -0.923880 0.000000 -0.382683
vn -0.923880 0.000000 -0.382683
vn -0.923880 0.000000 -0.382683
vn -0.923880 0.000000 0.382683
vn -0.923880 0.000000 0.382683
vn -0.923880 0.000000 0.382683
vn -0.923880 0.000000 0.382683
vn -0.382683 0.000000 0.923880
vn -0.382683 0.000000 0.923880
vn -0.382683 0.000000 0.923880
vn -0.382683 0.000000 0.923880
vn 0.382683 0.000000 0.923880
vn 0.382683 0.000000 0.923880
vn 0.382683 0.000000 0.923880
vn 0.382683 0.000000 0.923880
vn 0.923880 0.000000 0.382683
vn 0.923880 0.000000 0.382683
vn 0.923880 0.000000 0.382683
vn 0.923880 0.000000 0.382683
vn 0.923880 0.000000 -0.382684
vn 0.923880 0.000000 -0.382684
vn 0.923880 0.000000 -0.382684
vn 0.923880 0.000000 -0.382684
vn 0.000000 -1.000000 0.000000
vn 0.000000 -1.000000 0.000000
vn 0.000000 -1.000000 0.000000
vn 0.000000 -1.000000 0.000000
vn 0.000000 -1.000000 0.000000
vn 0.000000 -1.000000 0.000000
vn 0.000000 -1.000000 0.000000
vn 0.000000 -1.000000 0.000000
vn 0.000000 -1.000000 0.000000
vn -0.106185 -0.960734 0.256350
vn -0.106185 -0.960734 0.256350
vn -0.106185 -0.960734 0.256350
vn -0.106185 -0.960734 0.256350
vn 0.106185 -0.960733 0.256352
vn 0.106185 -0.960733 0.256352
vn 0.106185 -0.960733 0.256352
vn 0.106185 -0.960733 0.256352
vn 0.256353 -0.960733 0.106183
vn 0.256353 -0.960733 0.106183
vn 0.256353 -0.960733 0.106183
vn 0.256353 -0.960733 0.106183
vn 0.256353 -0.960733 -0.106183
vn 0.256353 -0.960733 -0.106183
vn 0.256353 -0.960733 -0.106183
vn 0.256353 -0.960733 -0.106183
vn 0.106185 -0.960734 -0.256350
vn 0.106185 -0.960734 -0.256350
vn 0.106185 -0.960734 -0.256350
vn 0.106185 -0.960734 -0.256350
vn -0.106185 -0.960733 -0.256354
vn -0.106185 -0.960733 -0.256354
vn -0.106185 -0.960733 -0.256354
vn -0.106185 -0.960733 -0.256354
vn -0.256353 -0.960734 -0.106180
vn -0.256353 -0.960734 -0.106180
vn -0.256353 -0.960734 -0.106180
vn -0.256353 -0.960734 -0.106180
vn -0.256353 -0.960733 0.106186
vn -0.256353 -0.960733 0.106186
vn -0.256353 -0.960733 0.106186
vn -0.256353 -0.960733 0.106186
vn 0.382683 0.000000 -0.923880
vn 0.382683 0.000000 -0.923880
vn 0.382683 0.000000 -0.923880
vn 0.382683 0.000000 -0.923880
vn -0.382683 0.000000 -0.923880
vn -0.382683 0.000000 -0.923880
vn -0.382683 0.000000 -0.923880
vn -0.382683 0.000000 -0.923880
vn -0.923880 0.000000 -0.382683
vn -0.923880 0.000000 -0.382683
vn -0.923880 0.000000 -0.382683
vn -0.923880 0.000000 -0.382683
vn -0.923880 0.000000 0.382683
vn -0.923880 0.000000 0.382683
vn -0.923880 0.000000 0.382683
vn -0.923880 0.000000 0.382683
vn -0.382683 0.000000 0.923880
vn -0.382683 0.000000 0.923880
vn -0.382683 0.000000 0.923880
vn -0.382683 0.000000 0.923880
vn 0.382683 0.000000 0.923880
vn 0.382683 0.000000 0.923880
vn 0.382683 0.000000 0.923880
vn 0.382683 0.000000 0.923880
vn 0.923880 0.000000 0.382683
vn 0.923880 0.000000 0.382683
vn 0.923880 0.000000 0.382683
vn 0.923880 0.000000 0.382683
vn 0.923880 0.000000 -0.382683
vn 0.923880 0.000000 -0.382683
vn 0.923880 0.000000 -0.382683
vn 0.923880 0.000000 -0.382683
vn 0.363024 0.316393 -0.876418
vn 0.363024 0.316393 -0.876418
vn 0.363024 0.316393 -0.876418
vn 0.363024 0.316393 -0.876418
vn -0.363024 0.316393 -0.876418
vn -0.363024 0.316393 -0.876418
vn -0.363024 0.316393 -0.876418
vn -0.363024 0.316393 -0.876418
vn -0.876418 0.316393 -0.363025
vn -0.876418 0.316393 -0.363025
vn -0.876418 0.316393 -0.363025
vn -0.876418 0.316393 -0.363025
vn -0.876419 0.316393 0.363023
vn -0.876419 0.316393 0.363023
vn -0.876419 0.316393 0.363023
vn -0.876419 0.316393 0.363023
vn -0.363024 0.316393 0.876418
vn -0.363024 0.316393 0.876418
vn -0.363024 0.316393 0.876418
vn -0.363024 0.316393 0.876418
vn 0.363024 0.316393 0.876418
vn 0.363024 0.316393 0.876418
vn 0.363024 0.316393 0.876418
vn 0.363024 0.316393 0.876418
vn 0.876418 0.316393 0.363025
vn 0.876418 0.316393 0.363025
vn 0.876418 0.316393 0.363025
vn 0.876418 0.316393 0.363025
vn 0.876419 0.316393 -0.363023
vn 0.876419 0.316393 -0.363023
vn 0.876419 0.316393 -0.363023
vn 0.876419 0.316393 -0.363023
vn 0.230371 0.798505 -0.556164
vn 0.230371 0.798505 -0.556164
vn 0.230371 0.798505 -0.556164
vn 0.230371 0.798505 -0.556164
vn -0.230371 0.798505 -0.556164
vn -0.230371 0.798505 -0.556164
vn -0.230371 0.798505 -0.556164
vn -0.230371 0.798505 -0.556164
vn -0.556164 0.798505 -0.230372
vn -0.556164 0.798505 -0.230372
vn -0.556164 0.798505 -0.230372
vn -0.556164 0.798505 -0.230372
vn -0.556164 0.798504 0.230376
vn -0.556164 0.798504 0.230376
vn -0.556164 0.798504 0.230376
vn -0.556164 0.798504 0.230376
vn -0.230371 0.798505 0.556164
vn -0.230371 0.798505 0.556164
vn -0.230371 0.798505 0.556164
vn -0.230371 0.798505 0.556164
vn 0.230371 0.798505 0.556165
vn 0.230371 0.798505 0.556165
vn 0.230371 0.798505 0.556165
vn 0.230371 0.798505 0.556165
vn 0.556164 0.798505 0.230372
vn 0.556164 0.798505 0.230372
vn 0.556164 0.798505 0.230372
vn 0.556164 0.798505 0.230372
vn 0.556164 0.798504 -0.230376
vn 0.556164 0.798504 -0.230376
vn 0.556164 0.798504 -0.230376
vn 0.556164 0.798504 -0.230376
vn 0.000000 1.000000 0.000000
vn 0.000000 1.000000 0.000000
vn 0.000000 1.000000 0.000000
vn 0.000000 1.000000 0.000000
vn 0.000000 1.000000 0.000000
vn 0.000000 1.000000 0.000000
vn 0.000000 1.000000 0.000000
vn 0.000000 1.000000 0.000000
vn 0.000000 1.000000 0.000000
vn 0.000000 1.000000 -0.000013
vn 0.000000 1.000000 -0.000013
vn 0.000000 1.000000 -0.000013
vn 0.000000 1.000000 -0.000013
vn 0.000000 1.000000 -0.000007
vn 0.000000 1.000000 -0.000007
vn 0.000000 1.000000 -0.000007
vn 0.000000 1.000000 -0.000007
vn 0.000000 1.000000 0.000000
vn 0.000000 1.000000 0.000000
vn 0.000000 1.000000 0.000000
vn 0.000000 1.000000 0.000000
vn 0.000000 1.000000 -0.000007
vn 0.000000 1.000000 -0.000007
vn 0.000000 1.000000 -0.000007
vn 0.000000 1.000000 -0.000007
vn 0.000000 1.000000 0.000000
vn 0.000000 1.000000 0.000000
vn 0.000000 1.000000 0.000000
vn 0.000000 1.000000 0.000000
vn 0.000000 1.000000 0.000007
vn 0.000000 1.000000 0.000007
vn 0.000000 1.000000 0.000007
vn 0.000000 1.000000 0.000007
vn 0.000000 1.000000 0.000015
vn 0.000000 1.000000 0.000015
vn 0.000000 1.000000 0.000015
vn 0.000000 1.000000 0.000015
vn 0.000000 1.000000 0.000007
vn 0.000000 1.000000 0.000007
vn 0.000000 1.000000 0.000007
vn 0.000000 1.000000 0.000007
vn 0.382682 0.000000 0.923880
vn 0.382682 0.000000 0.923880
vn 0.382682 0.000000 0.923880
vn 0.382682 0.000000 0.923880
vn 0.923879 0.000000 0.382686
vn 0.923879 0.000000 0.382686
vn 0.923879 0.000000 0.382686
vn 0.923879 0.000000 0.382686
vn -0.923879 0.000000 0.382686
vn -0.923879 0.000000 0.382686
vn -0.923879 0.000000 0.382686
vn -0.923879 0.000000 0.382686
vn -0.382682 0.000000 0.923880
vn -0.382682 0.000000 0.923880
vn -0.382682 0.000000 0.923880
vn -0.382682 0.000000 0.923880
vn 0.923879 0.000000 -0.382686
vn 0.923879 0.000000 -0.382686
vn 0.923879 0.000000 -0.382686
vn 0.923879 0.000000 -0.382686
vn 0.382682 0.000000 -0.923880
vn 0.382682 0.000000 -0.923880
vn 0.382682 0.000000 -0.923880
vn 0.382682 0.000000 -0.923880
vn -0.382682 0.000000 -0.923880
vn -0.382682 0.000000 -0.923880
vn -0.382682 0.000000 -0.923880
vn -0.382682 0.000000 -0.923880
vn -0.923879 0.000000 -0.382686
vn -0.923879 0.000000 -0.382686
vn -0.923879 0.000000 -0.382686
vn -0.923879 0.000000 -0.382686
g polySurface33 pPlane2
f 1/1/1 2/2/2 10/3/3 9/4/4
f 2/2/5 3/5/6 11/6/7 10/3/8
f 3/5/9 4/7/10 12/8/11 11/6/12
f 4/7/13 5/9/14 13/10/15 12/8/16
f 5/9/17 6/11/18 14/12/19 13/10/20
f 6/11/21 7/13/22 15/14/23 14/12/24
f 7/13/25 8/15/26 16/16/27 15/14/28
f 8/15/29 1/17/30 9/18/31 16/16/32
f 3/19/33 2/20/34 17/21/35 4/22/36
f 5/23/37 4/22/36 17/21/35 6/24/38
f 7/25/39 6/24/38 17/21/35 8/26/40
f 1/27/41 8/26/40 17/21/35 2/20/34
f 9/28/42 10/29/43 19/30/44 18/31/45
f 10/32/46 11/33/47 20/34/48 19/35/49
f 11/36/50 12/37/51 21/38/52 20/39/53
f 12/40/54 13/41/55 22/42/56 21/43/57
f 13/44/58 14/45/59 23/46/60 22/47/61
f 14/48/62 15/49/63 24/50/64 23/51/65
f 15/52/66 16/53/67 25/54/68 24/55/69
f 16/56/70 9/57/71 18/58/72 25/59/73
f 18/60/74 19/61/75 27/62/76 26/63/77
f 19/64/78 20/65/79 28/66/80 27/67/81
f 20/68/82 21/69/83 29/70/84 28/71/85
f 21/72/86 22/73/87 30/74/88 29/75/89
f 22/76/90 23/77/91 31/78/92 30/79/93
f 23/80/94 24/81/95 32/82/96 31/83/97
f 24/84/98 25/85/99 33/86/100 32/87/101
f 25/88/102 18/89/103 26/90/104 33/91/105
f 26/92/106 27/93/107 35/94/108 34/95/109
f 27/96/110 28/97/111 36/98/112 35/99/113
f 28/100/114 29/101/115 37/102/116 36/103/117
f 29/104/118 30/105/119 38/106/120 37/107/121
f 30/108/122 31/109/123 39/110/124 38/111/125
f 31/112/126 32/113/127 40/114/128 39/115/129
f 32/116/130 33/117/131 41/118/132 40/119/133
f 33/120/134 26/121/135 34/122/136 41/123/137
f 34/124/138 35/125/139 43/126/140 42/127/141
f 35/128/142 36/129/143 44/130/144 43/131/145
f 36/132/146 37/133/147 45/134/148 44/135/149
f 37/136/150 38/137/151 46/138/152 45/139/153
f 38/140/154 39/141/155 47/142/156 46/143/157
f 39/144/158 40/145/159 48/146/160 47/147/161
f 40/148/162 41/149/163 49/150/164 48/151/165
f 41/152/166 34/153/167 42/154/168 49/155/169
f 58/156/170 59/157/171 60/158/172 61/159/173
f 59/157/171 62/160/174 63/161/175 60/158/172
f 64/162/176 59/157/171 58/156/170 65/163/177
f 64/162/176 66/164/178 62/160/174 59/157/171
f 47/147/179 48/151/180 52/165/181 51/166/182
f 48/151/183 49/155/184 50/167/185 52/165/186
f 45/139/187 46/143/188 54/168/189 53/169/190
f 46/143/191 47/147/192 51/166/193 54/168/194
f 49/155/195 42/127/196 56/170/197 50/167/198
f 42/127/199 43/131/200 55/171/201 56/170/202
f 43/131/203 44/135/204 57/172/205 55/171/206
f 44/135/207 45/139/208 53/169/209 57/172/210
f 51/166/211 52/165/212 61/159/213 60/158/214
f 52/165/215 50/167/216 58/156/217 61/159/218
f 53/169/219 54/168/220 63/161/221 62/160/222
f 54/168/223 51/166/224 60/158/225 63/161/226
f 50/167/227 56/170/228 65/163/229 58/156/230
f 56/170/231 55/171/232 64/162/233 65/163/234
f 55/171/235 57/172/236 66/164/237 64/162/238
f 57/172/239 53/169/240 62/160/241 66/164/242
