# This file uses meters as units for non-parametric coordinates.

g default
v -12.500000 0.000000 0.847268
v 12.500000 0.000000 0.847268
v -12.500000 118.739975 0.847268
v 12.500000 118.739975 0.847268
v -12.500000 118.739975 -6.059784
v 12.500000 118.739975 -6.059784
v -12.500000 0.000000 -6.059784
v 12.500000 0.000000 -6.059784
v 0.000000 134.718231 0.847268
v 0.000000 134.718231 -6.059784
v 0.000000 0.000000 -6.059784
v 0.000000 0.000000 0.847268
v -64.998871 67.422417 6.059778
v 137.027130 67.422417 6.059778
v -64.998871 92.422417 6.059778
v 137.027130 92.422417 6.059778
v -64.998871 92.422417 1.159585
v 137.027130 92.422417 1.159585
v -64.998871 67.422417 1.159585
v 137.027130 67.422417 1.159585
v 38.303928 0.000000 0.847268
v 63.303928 0.000000 0.847268
v 38.303928 118.739975 0.847268
v 63.303928 118.739975 0.847268
v 38.303928 118.739975 -6.059784
v 63.303928 118.739975 -6.059784
v 38.303928 0.000000 -6.059784
v 63.303928 0.000000 -6.059784
v 50.803928 134.718231 0.847268
v 50.803928 134.718231 -6.059784
v 50.803928 0.000000 -6.059784
v 50.803928 0.000000 0.847268
v 87.500000 0.000000 0.847268
v 112.500000 0.000000 0.847268
v 87.500000 118.739975 0.847268
v 112.500000 118.739975 0.847268
v 87.500000 118.739975 -6.059784
v 112.500000 118.739975 -6.059784
v 87.500000 0.000000 -6.059784
v 112.500000 0.000000 -6.059784
v 100.000000 134.718231 0.847268
v 100.000000 134.718231 -6.059784
v 100.000000 0.000000 -6.059784
v 100.000000 0.000000 0.847268
v 137.500000 0.000000 0.847268
v 162.500000 0.000000 0.847268
v 137.500000 118.739975 0.847268
v 162.500000 118.739975 0.847268
v 137.500000 118.739975 -6.059784
v 162.500000 118.739975 -6.059784
v 137.500000 0.000000 -6.059784
v 162.500000 0.000000 -6.059784
v 150.000000 134.718231 0.847268
v 150.000000 134.718231 -6.059784
v 150.000000 0.000000 -6.059784
v 150.000000 0.000000 0.847268
vt 0.375000 0.000000
vt 0.508143 0.000000
vt 0.508143 0.250000
vt 0.375000 0.250000
vt 0.508143 0.500000
vt 0.375000 0.500000
vt 0.508143 0.750000
vt 0.375000 0.750000
vt 0.508143 1.000000
vt 0.375000 1.000000
vt 0.625000 0.000000
vt 0.875000 0.000000
vt 0.875000 0.250000
vt 0.625000 0.250000
vt 0.125000 0.000000
vt 0.125000 0.250000
vt 0.625000 0.500000
vt 0.625000 0.750000
vt 0.625000 1.000000
vt 0.375000 0.000000
vt 0.625000 0.000000
vt 0.625000 0.250000
vt 0.375000 0.250000
vt 0.625000 0.500000
vt 0.375000 0.500000
vt 0.625000 0.750000
vt 0.375000 0.750000
vt 0.625000 1.000000
vt 0.375000 1.000000
vt 0.875000 0.000000
vt 0.875000 0.250000
vt 0.125000 0.000000
vt 0.125000 0.250000
vt 0.375000 0.000000
vt 0.508143 0.000000
vt 0.508143 0.250000
vt 0.375000 0.250000
vt 0.508143 0.500000
vt 0.375000 0.500000
vt 0.508143 0.750000
vt 0.375000 0.750000
vt 0.508143 1.000000
vt 0.375000 1.000000
vt 0.625000 0.000000
vt 0.875000 0.000000
vt 0.875000 0.250000
vt 0.625000 0.250000
vt 0.125000 0.000000
vt 0.125000 0.250000
vt 0.625000 0.500000
vt 0.625000 0.750000
vt 0.625000 1.000000
vt 0.375000 0.000000
vt 0.508143 0.000000
vt 0.508143 0.250000
vt 0.375000 0.250000
vt 0.508143 0.500000
vt 0.375000 0.500000
vt 0.508143 0.750000
vt 0.375000 0.750000
vt 0.508143 1.000000
vt 0.375000 1.000000
vt 0.625000 0.000000
vt 0.875000 0.000000
vt 0.875000 0.250000
vt 0.625000 0.250000
vt 0.125000 0.000000
vt 0.125000 0.250000
vt 0.625000 0.500000
vt 0.625000 0.750000
vt 0.625000 1.000000
vt 0.375000 0.000000
vt 0.508143 0.000000
vt 0.508143 0.250000
vt 0.375000 0.250000
vt 0.508143 0.500000
vt 0.375000 0.500000
vt 0.508143 0.750000
vt 0.375000 0.750000
vt 0.508143 1.000000
vt 0.375000 1.000000
vt 0.625000 0.000000
vt 0.875000 0.000000
vt 0.875000 0.250000
vt 0.625000 0.250000
vt 0.125000 0.000000
vt 0.125000 0.250000
vt 0.625000 0.500000
vt 0.625000 0.750000
vt 0.625000 1.000000
vn -0.000000 0.000000 1.000000
vn -0.000000 0.000000 1.000000
vn -0.000000 0.000000 1.000000
vn -0.000000 0.000000 1.000000
vn -0.787618 0.616164 0.000000
vn 0.000000 1.000000 0.000000
vn 0.000000 1.000000 0.000000
vn -0.787618 0.616164 0.000000
vn -0.000000 0.000000 -1.000000
vn 0.000000 0.000000 -1.000000
vn 0.000000 0.000000 -1.000000
vn -0.000000 0.000000 -1.000000
vn 0.000000 -1.000000 0.000000
vn 0.000000 -1.000000 0.000000
vn 0.000000 -1.000000 0.000000
vn 0.000000 -1.000000 0.000000
vn 1.000000 0.000000 0.000000
vn 1.000000 0.000000 0.000000
vn 1.000000 0.000000 0.000000
vn 1.000000 0.000000 0.000000
vn -1.000000 0.000000 0.000000
vn -1.000000 0.000000 0.000000
vn -1.000000 0.000000 0.000000
vn -1.000000 0.000000 0.000000
vn 0.787618 0.616164 0.000000
vn 0.787618 0.616164 0.000000
vn 0.000000 0.000000 -1.000000
vn 0.000000 0.000000 -1.000000
vn 0.000000 -1.000000 0.000000
vn 0.000000 -1.000000 0.000000
vn 0.000000 0.000000 1.000000
vn 0.000000 0.000000 1.000000
vn 0.000000 0.000000 1.000000
vn 0.000000 0.000000 1.000000
vn 0.000000 0.000000 1.000000
vn 0.000000 0.000000 1.000000
vn 0.000000 1.000000 0.000000
vn 0.000000 1.000000 0.000000
vn 0.000000 1.000000 0.000000
vn 0.000000 1.000000 0.000000
vn 0.000000 0.000000 -1.000000
vn 0.000000 0.000000 -1.000000
vn 0.000000 0.000000 -1.000000
vn 0.000000 0.000000 -1.000000
vn 0.000000 -1.000000 0.000000
vn 0.000000 -1.000000 0.000000
vn 0.000000 -1.000000 0.000000
vn 0.000000 -1.000000 0.000000
vn 1.000000 0.000000 0.000000
vn 1.000000 0.000000 0.000000
vn 1.000000 0.000000 0.000000
vn 1.000000 0.000000 0.000000
vn -1.000000 0.000000 0.000000
vn -1.000000 0.000000 0.000000
vn -1.000000 0.000000 0.000000
vn -1.000000 0.000000 0.000000
vn -0.000000 0.000000 1.000000
vn -0.000000 0.000000 1.000000
vn -0.000000 0.000000 1.000000
vn -0.000000 0.000000 1.000000
vn -0.787618 0.616164 0.000000
vn 0.000000 1.000000 0.000000
vn 0.000000 1.000000 0.000000
vn -0.787618 0.616164 0.000000
vn -0.000000 0.000000 -1.000000
vn 0.000000 0.000000 -1.000000
vn 0.000000 0.000000 -1.000000
vn -0.000000 0.000000 -1.000000
vn 0.000000 -1.000000 0.000000
vn 0.000000 -1.000000 0.000000
vn 0.000000 -1.000000 0.000000
vn 0.000000 -1.000000 0.000000
vn 1.000000 0.000000 0.000000
vn 1.000000 0.000000 0.000000
vn 1.000000 0.000000 0.000000
vn 1.000000 0.000000 0.000000
vn -1.000000 0.000000 0.000000
vn -1.000000 0.000000 0.000000
vn -1.000000 0.000000 0.000000
vn -1.000000 0.000000 0.000000
vn 0.787618 0.616164 0.000000
vn 0.787618 0.616164 0.000000
vn 0.000000 0.000000 -1.000000
vn 0.000000 0.000000 -1.000000
vn 0.000000 -1.000000 0.000000
vn 0.000000 -1.000000 0.000000
vn 0.000000 0.000000 1.000000
vn 0.000000 0.000000 1.000000
vn -0.000000 0.000000 1.000000
vn -0.000000 0.000000 1.000000
vn -0.000000 0.000000 1.000000
vn -0.000000 0.000000 1.000000
vn -0.787618 0.616164 0.000000
vn 0.000000 1.000000 0.000000
vn 0.000000 1.000000 0.000000
vn -0.787618 0.616164 0.000000
vn -0.000000 0.000000 -1.000000
vn 0.000000 0.000000 -1.000000
vn 0.000000 0.000000 -1.000000
vn -0.000000 0.000000 -1.000000
vn 0.000000 -1.000000 0.000000
vn 0.000000 -1.000000 0.000000
vn 0.000000 -1.000000 0.000000
vn 0.000000 -1.000000 0.000000
vn 1.000000 0.000000 0.000000
vn 1.000000 0.000000 0.000000
vn 1.000000 0.000000 0.000000
vn 1.000000 0.000000 0.000000
vn -1.000000 0.000000 0.000000
vn -1.000000 0.000000 0.000000
vn -1.000000 0.000000 0.000000
vn -1.000000 0.000000 0.000000
vn 0.787618 0.616164 0.000000
vn 0.787618 0.616164 0.000000
vn 0.000000 0.000000 -1.000000
vn 0.000000 0.000000 -1.000000
vn 0.000000 -1.000000 0.000000
vn 0.000000 -1.000000 0.000000
vn 0.000000 0.000000 1.000000
vn 0.000000 0.000000 1.000000
vn -0.000000 0.000000 1.000000
vn -0.000000 0.000000 1.000000
vn -0.000000 0.000000 1.000000
vn -0.000000 0.000000 1.000000
vn -0.787618 0.616164 0.000000
vn 0.000000 1.000000 0.000000
vn 0.000000 1.000000 0.000000
vn -0.787618 0.616164 0.000000
vn -0.000000 0.000000 -1.000000
vn 0.000000 0.000000 -1.000000
vn 0.000000 0.000000 -1.000000
vn -0.000000 0.000000 -1.000000
vn 0.000000 -1.000000 0.000000
vn 0.000000 -1.000000 0.000000
vn 0.000000 -1.000000 0.000000
vn 0.000000 -1.000000 0.000000
vn 1.000000 0.000000 0.000000
vn 1.000000 0.000000 0.000000
vn 1.000000 0.000000 0.000000
vn 1.000000 0.000000 0.000000
vn -1.000000 0.000000 0.000000
vn -1.000000 0.000000 0.000000
vn -1.000000 0.000000 0.000000
vn -1.000000 0.000000 0.000000
vn 0.787618 0.616164 0.000000
vn 0.787618 0.616164 0.000000
vn 0.000000 0.000000 -1.000000
vn 0.000000 0.000000 -1.000000
vn 0.000000 -1.000000 0.000000
vn 0.000000 -1.000000 0.000000
vn 0.000000 0.000000 1.000000
vn 0.000000 0.000000 1.000000
g polySurface10
f 1/1/1 12/2/2 9/3/3 3/4/4
f 3/4/5 9/3/6 10/5/7 5/6/8
f 5/6/9 10/5/10 11/7/11 7/8/12
f 7/8/13 11/7/14 12/9/15 1/10/16
f 2/11/17 8/12/18 6/13/19 4/14/20
f 7/15/21 1/1/22 3/4/23 5/16/24
f 9/3/6 4/14/25 6/17/26 10/5/7
f 11/7/11 10/5/10 6/17/27 8/18/28
f 12/9/15 11/7/14 8/18/29 2/19/30
f 9/3/3 12/2/2 2/11/31 4/14/32
f 13/20/33 14/21/34 16/22/35 15/23/36
f 15/23/37 16/22/38 18/24/39 17/25/40
f 17/25/41 18/24/42 20/26/43 19/27/44
f 19/27/45 20/26/46 14/28/47 13/29/48
f 14/21/49 20/30/50 18/31/51 16/22/52
f 19/32/53 13/20/54 15/23/55 17/33/56
f 21/34/57 32/35/58 29/36/59 23/37/60
f 23/37/61 29/36/62 30/38/63 25/39/64
f 25/39/65 30/38/66 31/40/67 27/41/68
f 27/41/69 31/40/70 32/42/71 21/43/72
f 22/44/73 28/45/74 26/46/75 24/47/76
f 27/48/77 21/34/78 23/37/79 25/49/80
f 29/36/62 24/47/81 26/50/82 30/38/63
f 31/40/67 30/38/66 26/50/83 28/51/84
f 32/42/71 31/40/70 28/51/85 22/52/86
f 29/36/59 32/35/58 22/44/87 24/47/88
f 33/53/89 44/54/90 41/55/91 35/56/92
f 35/56/93 41/55/94 42/57/95 37/58/96
f 37/58/97 42/57/98 43/59/99 39/60/100
f 39/60/101 43/59/102 44/61/103 33/62/104
f 34/63/105 40/64/106 38/65/107 36/66/108
f 39/67/109 33/53/110 35/56/111 37/68/112
f 41/55/94 36/66/113 38/69/114 42/57/95
f 43/59/99 42/57/98 38/69/115 40/70/116
f 44/61/103 43/59/102 40/70/117 34/71/118
f 41/55/91 44/54/90 34/63/119 36/66/120
f 45/72/121 56/73/122 53/74/123 47/75/124
f 47/75/125 53/74/126 54/76/127 49/77/128
f 49/77/129 54/76/130 55/78/131 51/79/132
f 51/79/133 55/78/134 56/80/135 45/81/136
f 46/82/137 52/83/138 50/84/139 48/85/140
f 51/86/141 45/72/142 47/75/143 49/87/144
f 53/74/126 48/85/145 50/88/146 54/76/127
f 55/78/131 54/76/130 50/88/147 52/89/148
f 56/80/135 55/78/134 52/89/149 46/90/150
f 53/74/123 56/73/122 46/82/151 48/85/152
