# This file uses meters as units for non-parametric coordinates.

g default
v -65.704163 0.000000 0.847281
v -40.704163 0.000000 0.847281
v -65.704163 118.739975 0.847281
v -40.704163 118.739975 0.847281
v -65.704163 118.739975 -6.059781
v -40.704163 118.739975 -6.059781
v -65.704163 0.000000 -6.059781
v -40.704163 0.000000 -6.059781
v -53.204163 134.718231 0.847281
v -53.204163 134.718231 -6.059781
v -53.204163 0.000000 -6.059781
v -53.204163 0.000000 0.847281
v -115.704155 0.000000 0.847281
v -90.704163 0.000000 0.847281
v -115.704155 118.739975 0.847281
v -90.704163 118.739975 0.847281
v -115.704155 118.739975 -6.059781
v -90.704163 118.739975 -6.059781
v -115.704155 0.000000 -6.059781
v -90.704163 0.000000 -6.059781
v -103.204155 134.718231 0.847281
v -103.204155 134.718231 -6.059781
v -103.204155 0.000000 -6.059781
v -103.204155 0.000000 0.847281
v -164.900238 0.000000 0.847281
v -139.900238 0.000000 0.847281
v -164.900238 118.739975 0.847281
v -139.900238 118.739975 0.847281
v -164.900238 118.739975 -6.059781
v -139.900238 118.739975 -6.059781
v -164.900238 0.000000 -6.059781
v -139.900238 0.000000 -6.059781
v -152.400238 134.718231 0.847281
v -152.400238 134.718231 -6.059781
v -152.400238 0.000000 -6.059781
v -152.400238 0.000000 0.847281
v -215.667587 67.422417 6.059782
v -65.214005 67.422417 6.059782
v -215.667587 92.422417 6.059782
v -65.214005 92.422417 6.059782
v -215.667587 92.422417 1.159596
v -65.214005 92.422417 1.159596
v -215.667587 67.422417 1.159596
v -65.214005 67.422417 1.159596
v -215.704163 0.000000 0.847281
v -190.704163 0.000000 0.847281
v -215.704163 118.739975 0.847281
v -190.704163 118.739975 0.847281
v -215.704163 118.739975 -6.059781
v -190.704163 118.739975 -6.059781
v -215.704163 0.000000 -6.059781
v -190.704163 0.000000 -6.059781
v -203.204163 134.718231 0.847281
v -203.204163 134.718231 -6.059781
v -203.204163 0.000000 -6.059781
v -203.204163 0.000000 0.847281
vt 0.375000 0.000000
vt 0.508143 0.000000
vt 0.508143 0.250000
vt 0.375000 0.250000
vt 0.508143 0.500000
vt 0.375000 0.500000
vt 0.508143 0.750000
vt 0.375000 0.750000
vt 0.508143 1.000000
vt 0.375000 1.000000
vt 0.625000 0.000000
vt 0.875000 0.000000
vt 0.875000 0.250000
vt 0.625000 0.250000
vt 0.125000 0.000000
vt 0.125000 0.250000
vt 0.625000 0.500000
vt 0.625000 0.750000
vt 0.625000 1.000000
vt 0.375000 0.000000
vt 0.508143 0.000000
vt 0.508143 0.250000
vt 0.375000 0.250000
vt 0.508143 0.500000
vt 0.375000 0.500000
vt 0.508143 0.750000
vt 0.375000 0.750000
vt 0.508143 1.000000
vt 0.375000 1.000000
vt 0.625000 0.000000
vt 0.875000 0.000000
vt 0.875000 0.250000
vt 0.625000 0.250000
vt 0.125000 0.000000
vt 0.125000 0.250000
vt 0.625000 0.500000
vt 0.625000 0.750000
vt 0.625000 1.000000
vt 0.375000 0.000000
vt 0.508143 0.000000
vt 0.508143 0.250000
vt 0.375000 0.250000
vt 0.508143 0.500000
vt 0.375000 0.500000
vt 0.508143 0.750000
vt 0.375000 0.750000
vt 0.508143 1.000000
vt 0.375000 1.000000
vt 0.625000 0.000000
vt 0.875000 0.000000
vt 0.875000 0.250000
vt 0.625000 0.250000
vt 0.125000 0.000000
vt 0.125000 0.250000
vt 0.625000 0.500000
vt 0.625000 0.750000
vt 0.625000 1.000000
vt 0.375000 0.000000
vt 0.625000 0.000000
vt 0.625000 0.250000
vt 0.375000 0.250000
vt 0.625000 0.500000
vt 0.375000 0.500000
vt 0.625000 0.750000
vt 0.375000 0.750000
vt 0.625000 1.000000
vt 0.375000 1.000000
vt 0.875000 0.000000
vt 0.875000 0.250000
vt 0.125000 0.000000
vt 0.125000 0.250000
vt 0.375000 0.000000
vt 0.508143 0.000000
vt 0.508143 0.250000
vt 0.375000 0.250000
vt 0.508143 0.500000
vt 0.375000 0.500000
vt 0.508143 0.750000
vt 0.375000 0.750000
vt 0.508143 1.000000
vt 0.375000 1.000000
vt 0.625000 0.000000
vt 0.875000 0.000000
vt 0.875000 0.250000
vt 0.625000 0.250000
vt 0.125000 0.000000
vt 0.125000 0.250000
vt 0.625000 0.500000
vt 0.625000 0.750000
vt 0.625000 1.000000
vn 0.000000 0.000000 1.000000
vn 0.000000 0.000000 1.000000
vn 0.000000 0.000000 1.000000
vn 0.000000 0.000000 1.000000
vn -0.787618 0.616164 0.000000
vn 0.000000 1.000000 0.000000
vn 0.000000 1.000000 0.000000
vn -0.787618 0.616164 0.000000
vn 0.000000 0.000000 -1.000000
vn 0.000000 0.000000 -1.000000
vn 0.000000 0.000000 -1.000000
vn 0.000000 0.000000 -1.000000
vn 0.000000 -1.000000 0.000000
vn 0.000000 -1.000000 0.000000
vn 0.000000 -1.000000 0.000000
vn 0.000000 -1.000000 0.000000
vn 1.000000 0.000000 0.000000
vn 1.000000 0.000000 0.000000
vn 1.000000 0.000000 0.000000
vn 1.000000 0.000000 0.000000
vn -1.000000 0.000000 0.000000
vn -1.000000 0.000000 0.000000
vn -1.000000 0.000000 0.000000
vn -1.000000 0.000000 0.000000
vn 0.787618 0.616164 0.000000
vn 0.787618 0.616164 0.000000
vn 0.000000 0.000000 -1.000000
vn 0.000000 0.000000 -1.000000
vn 0.000000 -1.000000 0.000000
vn 0.000000 -1.000000 0.000000
vn 0.000000 0.000000 1.000000
vn 0.000000 0.000000 1.000000
vn 0.000000 0.000000 1.000000
vn 0.000000 0.000000 1.000000
vn 0.000000 0.000000 1.000000
vn 0.000000 0.000000 1.000000
vn -0.787618 0.616164 0.000000
vn 0.000000 1.000000 0.000000
vn 0.000000 1.000000 0.000000
vn -0.787618 0.616164 0.000000
vn 0.000000 0.000000 -1.000000
vn 0.000000 0.000000 -1.000000
vn 0.000000 0.000000 -1.000000
vn 0.000000 0.000000 -1.000000
vn 0.000000 -1.000000 0.000000
vn 0.000000 -1.000000 0.000000
vn 0.000000 -1.000000 0.000000
vn 0.000000 -1.000000 0.000000
vn 1.000000 0.000000 0.000000
vn 1.000000 0.000000 0.000000
vn 1.000000 0.000000 0.000000
vn 1.000000 0.000000 0.000000
vn -1.000000 0.000000 0.000000
vn -1.000000 0.000000 0.000000
vn -1.000000 0.000000 0.000000
vn -1.000000 0.000000 0.000000
vn 0.787618 0.616164 0.000000
vn 0.787618 0.616164 0.000000
vn 0.000000 0.000000 -1.000000
vn 0.000000 0.000000 -1.000000
vn 0.000000 -1.000000 0.000000
vn 0.000000 -1.000000 0.000000
vn 0.000000 0.000000 1.000000
vn 0.000000 0.000000 1.000000
vn 0.000000 0.000000 1.000000
vn 0.000000 0.000000 1.000000
vn 0.000000 0.000000 1.000000
vn 0.000000 0.000000 1.000000
vn -0.787618 0.616164 0.000000
vn -0.000000 1.000000 0.000000
vn -0.000000 1.000000 0.000000
vn -0.787618 0.616164 0.000000
vn 0.000000 0.000000 -1.000000
vn 0.000000 0.000000 -1.000000
vn 0.000000 0.000000 -1.000000
vn 0.000000 0.000000 -1.000000
vn 0.000000 -1.000000 0.000000
vn 0.000000 -1.000000 0.000000
vn 0.000000 -1.000000 0.000000
vn 0.000000 -1.000000 0.000000
vn 1.000000 0.000000 0.000000
vn 1.000000 0.000000 0.000000
vn 1.000000 0.000000 0.000000
vn 1.000000 0.000000 0.000000
vn -1.000000 0.000000 0.000000
vn -1.000000 0.000000 0.000000
vn -1.000000 0.000000 0.000000
vn -1.000000 0.000000 0.000000
vn 0.787618 0.616164 0.000000
vn 0.787618 0.616164 0.000000
vn 0.000000 0.000000 -1.000000
vn 0.000000 0.000000 -1.000000
vn 0.000000 -1.000000 0.000000
vn 0.000000 -1.000000 0.000000
vn 0.000000 0.000000 1.000000
vn 0.000000 0.000000 1.000000
vn 0.000000 0.000000 1.000000
vn 0.000000 0.000000 1.000000
vn 0.000000 0.000000 1.000000
vn 0.000000 0.000000 1.000000
vn 0.000000 1.000000 0.000000
vn 0.000000 1.000000 0.000000
vn 0.000000 1.000000 0.000000
vn 0.000000 1.000000 0.000000
vn 0.000000 0.000000 -1.000000
vn 0.000000 0.000000 -1.000000
vn 0.000000 0.000000 -1.000000
vn 0.000000 0.000000 -1.000000
vn 0.000000 -1.000000 0.000000
vn 0.000000 -1.000000 0.000000
vn 0.000000 -1.000000 0.000000
vn 0.000000 -1.000000 0.000000
vn 1.000000 0.000000 0.000000
vn 1.000000 0.000000 0.000000
vn 1.000000 0.000000 0.000000
vn 1.000000 0.000000 0.000000
vn -1.000000 0.000000 0.000000
vn -1.000000 0.000000 0.000000
vn -1.000000 0.000000 0.000000
vn -1.000000 0.000000 0.000000
vn 0.000000 0.000000 1.000000
vn 0.000000 0.000000 1.000000
vn 0.000000 0.000000 1.000000
vn 0.000000 0.000000 1.000000
vn -0.787618 0.616164 0.000000
vn 0.000000 1.000000 0.000000
vn 0.000000 1.000000 0.000000
vn -0.787618 0.616164 0.000000
vn 0.000000 0.000000 -1.000000
vn 0.000000 0.000000 -1.000000
vn 0.000000 0.000000 -1.000000
vn 0.000000 0.000000 -1.000000
vn 0.000000 -1.000000 0.000000
vn 0.000000 -1.000000 0.000000
vn 0.000000 -1.000000 0.000000
vn 0.000000 -1.000000 0.000000
vn 1.000000 0.000000 0.000000
vn 1.000000 0.000000 0.000000
vn 1.000000 0.000000 0.000000
vn 1.000000 0.000000 0.000000
vn -1.000000 0.000000 0.000000
vn -1.000000 0.000000 0.000000
vn -1.000000 0.000000 0.000000
vn -1.000000 0.000000 0.000000
vn 0.787618 0.616164 0.000000
vn 0.787618 0.616164 0.000000
vn 0.000000 0.000000 -1.000000
vn 0.000000 0.000000 -1.000000
vn 0.000000 -1.000000 0.000000
vn 0.000000 -1.000000 0.000000
vn 0.000000 0.000000 1.000000
vn 0.000000 0.000000 1.000000
g polySurface20
f 1/1/1 12/2/2 9/3/3 3/4/4
f 3/4/5 9/3/6 10/5/7 5/6/8
f 5/6/9 10/5/10 11/7/11 7/8/12
f 7/8/13 11/7/14 12/9/15 1/10/16
f 2/11/17 8/12/18 6/13/19 4/14/20
f 7/15/21 1/1/22 3/4/23 5/16/24
f 9/3/6 4/14/25 6/17/26 10/5/7
f 11/7/11 10/5/10 6/17/27 8/18/28
f 12/9/15 11/7/14 8/18/29 2/19/30
f 9/3/3 12/2/2 2/11/31 4/14/32
f 13/20/33 24/21/34 21/22/35 15/23/36
f 15/23/37 21/22/38 22/24/39 17/25/40
f 17/25/41 22/24/42 23/26/43 19/27/44
f 19/27/45 23/26/46 24/28/47 13/29/48
f 14/30/49 20/31/50 18/32/51 16/33/52
f 19/34/53 13/20/54 15/23/55 17/35/56
f 21/22/38 16/33/57 18/36/58 22/24/39
f 23/26/43 22/24/42 18/36/59 20/37/60
f 24/28/47 23/26/46 20/37/61 14/38/62
f 21/22/35 24/21/34 14/30/63 16/33/64
f 25/39/65 36/40/66 33/41/67 27/42/68
f 27/42/69 33/41/70 34/43/71 29/44/72
f 29/44/73 34/43/74 35/45/75 31/46/76
f 31/46/77 35/45/78 36/47/79 25/48/80
f 26/49/81 32/50/82 30/51/83 28/52/84
f 31/53/85 25/39/86 27/42/87 29/54/88
f 33/41/70 28/52/89 30/55/90 34/43/71
f 35/45/75 34/43/74 30/55/91 32/56/92
f 36/47/79 35/45/78 32/56/93 26/57/94
f 33/41/67 36/40/66 26/49/95 28/52/96
f 37/58/97 38/59/98 40/60/99 39/61/100
f 39/61/101 40/60/102 42/62/103 41/63/104
f 41/63/105 42/62/106 44/64/107 43/65/108
f 43/65/109 44/64/110 38/66/111 37/67/112
f 38/59/113 44/68/114 42/69/115 40/60/116
f 43/70/117 37/58/118 39/61/119 41/71/120
f 45/72/121 56/73/122 53/74/123 47/75/124
f 47/75/125 53/74/126 54/76/127 49/77/128
f 49/77/129 54/76/130 55/78/131 51/79/132
f 51/79/133 55/78/134 56/80/135 45/81/136
f 46/82/137 52/83/138 50/84/139 48/85/140
f 51/86/141 45/72/142 47/75/143 49/87/144
f 53/74/126 48/85/145 50/88/146 54/76/127
f 55/78/131 54/76/130 50/88/147 52/89/148
f 56/80/135 55/78/134 52/89/149 46/90/150
f 53/74/123 56/73/122 46/82/151 48/85/152
