# This file uses meters as units for non-parametric coordinates.

g default
v -12.500000 0.000000 0.847268
v 12.500000 0.000000 0.847268
v -12.500000 118.739975 0.847268
v 12.500000 118.739975 0.847268
v -12.500000 118.739975 -6.059790
v 12.500000 118.739975 -6.059790
v -12.500000 0.000000 -6.059790
v 12.500000 0.000000 -6.059790
v 0.000000 134.718231 0.847268
v 0.000000 134.718231 -6.059790
v 0.000000 0.000000 -6.059790
v 0.000000 0.000000 0.847268
v 38.303928 0.000000 0.847268
v 63.303928 0.000000 0.847268
v 38.303928 118.739975 0.847268
v 63.303928 118.739975 0.847268
v 38.303928 118.739975 -6.059790
v 63.303928 118.739975 -6.059790
v 38.303928 0.000000 -6.059790
v 63.303928 0.000000 -6.059790
v 50.803928 134.718231 0.847268
v 50.803928 134.718231 -6.059790
v 50.803928 0.000000 -6.059790
v 50.803928 0.000000 0.847268
v 87.500000 0.000000 0.847268
v 112.500000 0.000000 0.847268
v 87.500000 118.739975 0.847268
v 112.500000 118.739975 0.847268
v 87.500000 118.739975 -6.059790
v 112.500000 118.739975 -6.059790
v 87.500000 0.000000 -6.059790
v 112.500000 0.000000 -6.059790
v 100.000000 134.718231 0.847268
v 100.000000 134.718231 -6.059790
v 100.000000 0.000000 -6.059790
v 100.000000 0.000000 0.847268
v 137.500000 0.000000 0.847268
v 162.500000 0.000000 0.847268
v 137.500000 118.739975 0.847268
v 162.500000 118.739975 0.847268
v 137.500000 118.739975 -6.059790
v 162.500000 118.739975 -6.059790
v 137.500000 0.000000 -6.059790
v 162.500000 0.000000 -6.059790
v 150.000000 134.718231 0.847268
v 150.000000 134.718231 -6.059790
v 150.000000 0.000000 -6.059790
v 150.000000 0.000000 0.847268
v -64.998871 67.422417 6.059778
v 162.089920 67.422417 6.059778
v -64.998871 92.422417 6.059778
v 162.089920 92.422417 6.059778
v -64.998871 92.422417 1.159585
v 162.089920 92.422417 1.159585
v -64.998871 67.422417 1.159585
v 162.089920 67.422417 1.159585
vt 0.375000 0.000000
vt 0.508143 0.000000
vt 0.508143 0.250000
vt 0.375000 0.250000
vt 0.508143 0.500000
vt 0.375000 0.500000
vt 0.508143 0.750000
vt 0.375000 0.750000
vt 0.508143 1.000000
vt 0.375000 1.000000
vt 0.625000 0.000000
vt 0.875000 0.000000
vt 0.875000 0.250000
vt 0.625000 0.250000
vt 0.125000 0.000000
vt 0.125000 0.250000
vt 0.625000 0.500000
vt 0.625000 0.750000
vt 0.625000 1.000000
vt 0.375000 0.000000
vt 0.508143 0.000000
vt 0.508143 0.250000
vt 0.375000 0.250000
vt 0.508143 0.500000
vt 0.375000 0.500000
vt 0.508143 0.750000
vt 0.375000 0.750000
vt 0.508143 1.000000
vt 0.375000 1.000000
vt 0.625000 0.000000
vt 0.875000 0.000000
vt 0.875000 0.250000
vt 0.625000 0.250000
vt 0.125000 0.000000
vt 0.125000 0.250000
vt 0.625000 0.500000
vt 0.625000 0.750000
vt 0.625000 1.000000
vt 0.375000 0.000000
vt 0.508143 0.000000
vt 0.508143 0.250000
vt 0.375000 0.250000
vt 0.508143 0.500000
vt 0.375000 0.500000
vt 0.508143 0.750000
vt 0.375000 0.750000
vt 0.508143 1.000000
vt 0.375000 1.000000
vt 0.625000 0.000000
vt 0.875000 0.000000
vt 0.875000 0.250000
vt 0.625000 0.250000
vt 0.125000 0.000000
vt 0.125000 0.250000
vt 0.625000 0.500000
vt 0.625000 0.750000
vt 0.625000 1.000000
vt 0.375000 0.000000
vt 0.508143 0.000000
vt 0.508143 0.250000
vt 0.375000 0.250000
vt 0.508143 0.500000
vt 0.375000 0.500000
vt 0.508143 0.750000
vt 0.375000 0.750000
vt 0.508143 1.000000
vt 0.375000 1.000000
vt 0.625000 0.000000
vt 0.875000 0.000000
vt 0.875000 0.250000
vt 0.625000 0.250000
vt 0.125000 0.000000
vt 0.125000 0.250000
vt 0.625000 0.500000
vt 0.625000 0.750000
vt 0.625000 1.000000
vt 0.375000 0.000000
vt 0.625000 0.000000
vt 0.625000 0.250000
vt 0.375000 0.250000
vt 0.625000 0.500000
vt 0.375000 0.500000
vt 0.625000 0.750000
vt 0.375000 0.750000
vt 0.625000 1.000000
vt 0.375000 1.000000
vt 0.875000 0.000000
vt 0.875000 0.250000
vt 0.125000 0.000000
vt 0.125000 0.250000
vn -0.000000 0.000000 1.000000
vn -0.000000 0.000000 1.000000
vn -0.000000 0.000000 1.000000
vn -0.000000 0.000000 1.000000
vn -0.787618 0.616164 0.000000
vn 0.000000 1.000000 0.000000
vn 0.000000 1.000000 0.000000
vn -0.787618 0.616164 0.000000
vn 0.000000 0.000000 -1.000000
vn 0.000000 0.000000 -1.000000
vn 0.000000 0.000000 -1.000000
vn 0.000000 0.000000 -1.000000
vn 0.000000 -1.000000 0.000000
vn 0.000000 -1.000000 0.000000
vn 0.000000 -1.000000 0.000000
vn 0.000000 -1.000000 0.000000
vn 1.000000 0.000000 0.000000
vn 1.000000 0.000000 0.000000
vn 1.000000 0.000000 0.000000
vn 1.000000 0.000000 0.000000
vn -1.000000 0.000000 0.000000
vn -1.000000 0.000000 0.000000
vn -1.000000 0.000000 0.000000
vn -1.000000 0.000000 0.000000
vn 0.787618 0.616164 0.000000
vn 0.787618 0.616164 0.000000
vn 0.000000 0.000000 -1.000000
vn 0.000000 0.000000 -1.000000
vn 0.000000 -1.000000 0.000000
vn 0.000000 -1.000000 0.000000
vn 0.000000 0.000000 1.000000
vn 0.000000 0.000000 1.000000
vn -0.000000 0.000000 1.000000
vn -0.000000 0.000000 1.000000
vn -0.000000 0.000000 1.000000
vn -0.000000 0.000000 1.000000
vn -0.787618 0.616164 0.000000
vn 0.000000 1.000000 0.000000
vn 0.000000 1.000000 0.000000
vn -0.787618 0.616164 0.000000
vn 0.000000 0.000000 -1.000000
vn 0.000000 0.000000 -1.000000
vn 0.000000 0.000000 -1.000000
vn 0.000000 0.000000 -1.000000
vn 0.000000 -1.000000 0.000000
vn 0.000000 -1.000000 0.000000
vn 0.000000 -1.000000 0.000000
vn 0.000000 -1.000000 0.000000
vn 1.000000 0.000000 0.000000
vn 1.000000 0.000000 0.000000
vn 1.000000 0.000000 0.000000
vn 1.000000 0.000000 0.000000
vn -1.000000 0.000000 0.000000
vn -1.000000 0.000000 0.000000
vn -1.000000 0.000000 0.000000
vn -1.000000 0.000000 0.000000
vn 0.787618 0.616164 0.000000
vn 0.787618 0.616164 0.000000
vn 0.000000 0.000000 -1.000000
vn 0.000000 0.000000 -1.000000
vn 0.000000 -1.000000 0.000000
vn 0.000000 -1.000000 0.000000
vn 0.000000 0.000000 1.000000
vn 0.000000 0.000000 1.000000
vn -0.000000 0.000000 1.000000
vn -0.000000 0.000000 1.000000
vn -0.000000 0.000000 1.000000
vn -0.000000 0.000000 1.000000
vn -0.787618 0.616164 0.000000
vn -0.000000 1.000000 0.000000
vn -0.000000 1.000000 0.000000
vn -0.787618 0.616164 0.000000
vn 0.000000 0.000000 -1.000000
vn 0.000000 0.000000 -1.000000
vn 0.000000 0.000000 -1.000000
vn 0.000000 0.000000 -1.000000
vn 0.000000 -1.000000 0.000000
vn 0.000000 -1.000000 0.000000
vn 0.000000 -1.000000 0.000000
vn 0.000000 -1.000000 0.000000
vn 1.000000 0.000000 0.000000
vn 1.000000 0.000000 0.000000
vn 1.000000 0.000000 0.000000
vn 1.000000 0.000000 0.000000
vn -1.000000 0.000000 0.000000
vn -1.000000 0.000000 0.000000
vn -1.000000 0.000000 0.000000
vn -1.000000 0.000000 0.000000
vn 0.787618 0.616164 0.000000
vn 0.787618 0.616164 0.000000
vn 0.000000 0.000000 -1.000000
vn 0.000000 0.000000 -1.000000
vn 0.000000 -1.000000 0.000000
vn 0.000000 -1.000000 0.000000
vn 0.000000 0.000000 1.000000
vn 0.000000 0.000000 1.000000
vn -0.000000 0.000000 1.000000
vn -0.000000 0.000000 1.000000
vn -0.000000 0.000000 1.000000
vn -0.000000 0.000000 1.000000
vn -0.787618 0.616164 0.000000
vn -0.000000 1.000000 0.000000
vn -0.000000 1.000000 0.000000
vn -0.787618 0.616164 0.000000
vn 0.000000 0.000000 -1.000000
vn 0.000000 0.000000 -1.000000
vn 0.000000 0.000000 -1.000000
vn 0.000000 0.000000 -1.000000
vn 0.000000 -1.000000 0.000000
vn 0.000000 -1.000000 0.000000
vn 0.000000 -1.000000 0.000000
vn 0.000000 -1.000000 0.000000
vn 1.000000 0.000000 0.000000
vn 1.000000 0.000000 0.000000
vn 1.000000 0.000000 0.000000
vn 1.000000 0.000000 0.000000
vn -1.000000 0.000000 0.000000
vn -1.000000 0.000000 0.000000
vn -1.000000 0.000000 0.000000
vn -1.000000 0.000000 0.000000
vn 0.787618 0.616164 0.000000
vn 0.787618 0.616164 0.000000
vn 0.000000 0.000000 -1.000000
vn 0.000000 0.000000 -1.000000
vn 0.000000 -1.000000 0.000000
vn 0.000000 -1.000000 0.000000
vn 0.000000 0.000000 1.000000
vn 0.000000 0.000000 1.000000
vn 0.000000 0.000000 1.000000
vn 0.000000 0.000000 1.000000
vn 0.000000 0.000000 1.000000
vn 0.000000 0.000000 1.000000
vn 0.000000 1.000000 0.000000
vn 0.000000 1.000000 0.000000
vn 0.000000 1.000000 0.000000
vn 0.000000 1.000000 0.000000
vn 0.000000 0.000000 -1.000000
vn 0.000000 0.000000 -1.000000
vn 0.000000 0.000000 -1.000000
vn 0.000000 0.000000 -1.000000
vn 0.000000 -1.000000 0.000000
vn 0.000000 -1.000000 0.000000
vn 0.000000 -1.000000 0.000000
vn 0.000000 -1.000000 0.000000
vn 1.000000 0.000000 0.000000
vn 1.000000 0.000000 0.000000
vn 1.000000 0.000000 0.000000
vn 1.000000 0.000000 0.000000
vn -1.000000 0.000000 0.000000
vn -1.000000 0.000000 0.000000
vn -1.000000 0.000000 0.000000
vn -1.000000 0.000000 0.000000
g polySurface22
f 1/1/1 12/2/2 9/3/3 3/4/4
f 3/4/5 9/3/6 10/5/7 5/6/8
f 5/6/9 10/5/10 11/7/11 7/8/12
f 7/8/13 11/7/14 12/9/15 1/10/16
f 2/11/17 8/12/18 6/13/19 4/14/20
f 7/15/21 1/1/22 3/4/23 5/16/24
f 9/3/6 4/14/25 6/17/26 10/5/7
f 11/7/11 10/5/10 6/17/27 8/18/28
f 12/9/15 11/7/14 8/18/29 2/19/30
f 9/3/3 12/2/2 2/11/31 4/14/32
f 13/20/33 24/21/34 21/22/35 15/23/36
f 15/23/37 21/22/38 22/24/39 17/25/40
f 17/25/41 22/24/42 23/26/43 19/27/44
f 19/27/45 23/26/46 24/28/47 13/29/48
f 14/30/49 20/31/50 18/32/51 16/33/52
f 19/34/53 13/20/54 15/23/55 17/35/56
f 21/22/38 16/33/57 18/36/58 22/24/39
f 23/26/43 22/24/42 18/36/59 20/37/60
f 24/28/47 23/26/46 20/37/61 14/38/62
f 21/22/35 24/21/34 14/30/63 16/33/64
f 25/39/65 36/40/66 33/41/67 27/42/68
f 27/42/69 33/41/70 34/43/71 29/44/72
f 29/44/73 34/43/74 35/45/75 31/46/76
f 31/46/77 35/45/78 36/47/79 25/48/80
f 26/49/81 32/50/82 30/51/83 28/52/84
f 31/53/85 25/39/86 27/42/87 29/54/88
f 33/41/70 28/52/89 30/55/90 34/43/71
f 35/45/75 34/43/74 30/55/91 32/56/92
f 36/47/79 35/45/78 32/56/93 26/57/94
f 33/41/67 36/40/66 26/49/95 28/52/96
f 37/58/97 48/59/98 45/60/99 39/61/100
f 39/61/101 45/60/102 46/62/103 41/63/104
f 41/63/105 46/62/106 47/64/107 43/65/108
f 43/65/109 47/64/110 48/66/111 37/67/112
f 38/68/113 44/69/114 42/70/115 40/71/116
f 43/72/117 37/58/118 39/61/119 41/73/120
f 45/60/102 40/71/121 42/74/122 46/62/103
f 47/64/107 46/62/106 42/74/123 44/75/124
f 48/66/111 47/64/110 44/75/125 38/76/126
f 45/60/99 48/59/98 38/68/127 40/71/128
f 49/77/129 50/78/130 52/79/131 51/80/132
f 51/80/133 52/79/134 54/81/135 53/82/136
f 53/82/137 54/81/138 56/83/139 55/84/140
f 55/84/141 56/83/142 50/85/143 49/86/144
f 50/78/145 56/87/146 54/88/147 52/79/148
f 55/89/149 49/77/150 51/80/151 53/90/152
